
<svg xmlns="http://www.w3.org/2000/svg" xmlns:xlink="http://www.w3.org/1999/xlink" version="1.1" x="0px" y="0px" viewBox="0 0 96 120" enable-background="new 0 0 96 96" xml:space="preserve"><rect x="6.251" y="81.82" width="83.5" height="2.73"/><path d="M77.767,80.32c-0.779-3.122-3.171-13.188-3.171-18.995c0-3.027-5.575-5.2-11.272-6.58c-2.91-0.705-5.847-1.202-8.094-1.5  c-0.616-0.082-1.185-0.149-1.682-0.201l-0.489-0.051l-1.97-6.233c-0.994,0.23-2.024,0.363-3.087,0.363  c-1.069,0-2.105-0.135-3.104-0.367l-1.971,6.237l-0.489,0.051c-0.497,0.052-1.065,0.119-1.682,0.201  c-0.227,0.03-0.461,0.063-0.701,0.097c-6.799,0.965-18.666,3.566-18.666,7.983c0,0.353-0.011,0.724-0.027,1.105  c-0.021,0.481-0.054,0.981-0.099,1.5c-0.501,5.838-2.373,13.696-3.044,16.39h11.403V63.582c0-2.28,1.855-4.136,4.135-4.136h28.489  c2.28,0,4.135,1.855,4.135,4.136V80.32H77.767z"/><path d="M33.757,60.946c-1.453,0-2.635,1.183-2.635,2.636V80.32h33.76V63.582c0-1.453-1.182-2.636-2.635-2.636H33.757z   M44.547,77.175l-1.061,1.061l-6.372-6.372l6.372-6.372l1.061,1.061l-5.312,5.312L44.547,77.175z M49.083,77.927l-3.606-11.684  L46.91,65.8l3.606,11.684L49.083,77.927z M52.506,78.235l-1.061-1.061l5.311-5.312l-5.311-5.312l1.061-1.061l6.371,6.372  L52.506,78.235z"/><path d="M56.727,24.852c-0.543-0.555-1.139-1.057-1.778-1.5c-1.975-1.369-4.367-2.178-6.947-2.178s-4.972,0.809-6.947,2.178  c-0.279,0.193-0.552,0.394-0.813,0.608c-1.922,1.582-3.342,3.744-4.019,6.21c-0.134,0.488-0.237,0.989-0.31,1.5  c-0.081,0.566-0.137,1.141-0.137,1.729c0,4.574,2.53,8.564,6.26,10.66c0.726,0.408,1.495,0.748,2.302,1.002  c0.382,0.12,0.771,0.222,1.167,0.305c0.406,0.085,0.82,0.15,1.24,0.193c0.052,0.005,0.106,0.004,0.158,0.009  c0.362,0.032,0.728,0.056,1.098,0.056c0.424,0,0.843-0.022,1.256-0.064c0.385-0.039,0.763-0.1,1.137-0.174  c0.261-0.053,0.515-0.123,0.769-0.191c0.246-0.065,0.489-0.135,0.728-0.216c0.724-0.244,1.418-0.55,2.075-0.919  c3.73-2.096,6.26-6.086,6.26-10.66c0-0.588-0.056-1.162-0.137-1.729c-0.073-0.511-0.176-1.012-0.31-1.5  C59.223,28.139,58.161,26.315,56.727,24.852z"/><polygon points="6.032,38.034 19.964,24.102 6.032,10.171 4.971,11.231 17.843,24.102 4.971,36.974 "/><rect x="27.42" y="16.535" width="12.033" height="1.5"/><rect x="46.941" y="16.535" width="17.917" height="1.5"/><rect x="74.525" y="16.535" width="3.155" height="1.5"/><rect x="86.6" y="16.535" width="3.902" height="1.5"/><rect x="78.469" y="23.352" width="12.032" height="1.5"/><rect x="27.42" y="23.352" width="3.902" height="1.5"/><rect x="74.525" y="30.17" width="3.155" height="1.5"/><rect x="86.6" y="30.17" width="3.902" height="1.5"/><rect x="5.501" y="44.059" width="16.213" height="1.5"/><rect x="68.974" y="44.059" width="4.251" height="1.5"/><rect x="85.244" y="44.059" width="5.258" height="1.5"/><rect x="74.288" y="53.245" width="16.213" height="1.5"/><rect x="22.777" y="53.245" width="4.252" height="1.5"/><rect x="5.501" y="53.245" width="5.258" height="1.5"/><rect x="85.244" y="62.431" width="5.258" height="1.5"/></svg>
