<svg xmlns="http://www.w3.org/2000/svg" xmlns:xlink="http://www.w3.org/1999/xlink" version="1.1" x="0px" y="0px" viewBox="0 0 57 71.25" enable-background="new 0 0 57 57" xml:space="preserve"><path d="M52.91,10.882c-0.297-0.283-0.691-0.436-1.109-0.412c-0.225,0.012-0.693,0.037-1.336,0.087V7.114c0-0.829-0.67-1.5-1.5-1.5  c-0.631,0-14.393,0.135-20.465,10.325C22.43,5.749,8.668,5.614,8.035,5.614c-0.828,0-1.5,0.671-1.5,1.5v3.442  c-0.643-0.05-1.111-0.075-1.336-0.087c-0.42-0.022-0.811,0.129-1.107,0.412c-0.299,0.283-0.467,0.676-0.467,1.086v31.934  c0,0.814,0.65,1.48,1.465,1.499c9.691,0.226,17.416,3.564,18.619,4.111c1.313,1.206,3,1.874,4.791,1.874  c1.793,0,3.48-0.668,4.793-1.875c1.203-0.549,8.898-3.885,18.617-4.11c0.814-0.019,1.465-0.685,1.465-1.499V11.968  C53.375,11.558,53.207,11.165,52.91,10.882z M47.465,8.707v2.149c-4.711,0.574-11.895,1.943-15.326,5.121  C36.586,10.349,44.236,9.015,47.465,8.707z M9.535,8.707c3.229,0.308,10.879,1.642,15.326,7.271  c-3.43-3.178-10.615-4.547-15.326-5.121V8.707z M6.625,13.574c4.74,0.4,13.551,1.743,16.416,4.813v27.593  c-3.053-1.183-9.074-3.133-16.416-3.521V13.574z M26.041,47.544V20.54c0.777,0.287,1.605,0.445,2.459,0.445s1.682-0.158,2.459-0.445  v27.005c-0.707,0.536-1.557,0.841-2.459,0.841S26.748,48.081,26.041,47.544z M50.375,42.458c-7.342,0.389-13.363,2.339-16.416,3.521  V18.387c2.867-3.069,11.678-4.412,16.416-4.813V42.458z"/></svg>
