<svg xmlns="http://www.w3.org/2000/svg" data-name="Layer 2" viewBox="0 0 100 125" x="0px" y="0px"><title>Artboard 1</title><path d="M17.39,89.62H82.61a3.89,3.89,0,0,0,3.89-3.89V14.27a3.89,3.89,0,0,0-3.89-3.89H17.39a3.89,3.89,0,0,0-3.89,3.89V85.73A3.89,3.89,0,0,0,17.39,89.62ZM17.75,20a4.84,4.84,0,0,1,4.84-4.83H77.41A4.84,4.84,0,0,1,82.25,20V80a4.84,4.84,0,0,1-4.84,4.83H22.59A4.84,4.84,0,0,1,17.75,80Z"/><path d="M22.59,82.85h3.66V75.07a3.61,3.61,0,1,1,2,0v7.78H41.19V76.58l-.53-.35-6.84-4.56a1,1,0,0,1-.44-.84V45.63a3.6,3.6,0,1,1,2,0V70.3l4.73,3.15,1.08.72V61.26a3.6,3.6,0,1,1,2,0V82.85H51.6V69.07a3.61,3.61,0,1,1,2,0V82.85H67.23V45.63a3.6,3.6,0,1,1,2,0V55.4l4.15-4.15L75,49.59V35.22a3.61,3.61,0,1,1,2,0V50a1,1,0,0,1-.29.71l-3.9,3.9-3.62,3.62V82.85h8.18A2.84,2.84,0,0,0,80.25,80V20a2.84,2.84,0,0,0-2.84-2.83H66.62V34.38a1,1,0,0,1-.29.7l-2.77,2.78L61.42,40V70a3.61,3.61,0,1,1-2,0V39.58a1,1,0,0,1,.29-.7l4.14-4.15.77-.77V17.15H59.3V28.33a3.6,3.6,0,1,1-2,0V17.15H51v6a3.6,3.6,0,1,1-2,0v-6H40.58v11.6l4.16,4.16,6,6a1,1,0,0,1,.29.7v9.58a3.6,3.6,0,1,1-2,0V40l-3-3-7.12-7.13a1,1,0,0,1-.3-.7v-12H30.17V34.38a1,1,0,0,1-.3.7l-3.32,3.33L25,40V59.58a3.61,3.61,0,1,1-2,0v-20a1,1,0,0,1,.29-.7l3.67-3.68L28.17,34V17.15H22.59A2.84,2.84,0,0,0,19.75,20V80A2.84,2.84,0,0,0,22.59,82.85Z"/><circle cx="50" cy="26.56" r="1.6"/><path d="M48.4,52.6A1.6,1.6,0,1,0,50,51,1.61,1.61,0,0,0,48.4,52.6Z"/><path d="M58.81,73.44a1.61,1.61,0,1,0,1.61-1.61A1.61,1.61,0,0,0,58.81,73.44Z"/><path d="M22.35,63A1.61,1.61,0,1,0,24,61.42,1.6,1.6,0,0,0,22.35,63Z"/><path d="M54.21,65.62a1.61,1.61,0,1,0-1.61,1.61A1.61,1.61,0,0,0,54.21,65.62Z"/><path d="M77.65,31.77A1.61,1.61,0,1,0,76,33.38,1.61,1.61,0,0,0,77.65,31.77Z"/><path d="M69.83,42.19a1.61,1.61,0,1,0-1.6,1.6A1.61,1.61,0,0,0,69.83,42.19Z"/><path d="M56.7,31.77a1.6,1.6,0,1,0,1.6-1.6A1.61,1.61,0,0,0,56.7,31.77Z"/><circle cx="42.19" cy="57.81" r="1.6"/><path d="M28.86,71.63a1.61,1.61,0,1,0-1.61,1.6A1.61,1.61,0,0,0,28.86,71.63Z"/><circle cx="34.38" cy="42.19" r="1.6"/></svg>
