<svg xmlns="http://www.w3.org/2000/svg" xmlns:xlink="http://www.w3.org/1999/xlink" version="1.1" x="0px" y="0px" viewBox="0 0 66 82.5" enable-background="new 0 0 66 66" xml:space="preserve"><g><path d="M64.6,23.5l-2.8-1.9c0-1.3-0.1-2.6-0.3-3.9l2.5-2.3c0.3-0.3,0.4-0.8,0.2-1.2l-2.5-4.8   c-0.2-0.4-0.6-0.6-1.1-0.5l-3.3,0.7c-0.9-1-1.9-1.8-3-2.5l0.1-3.4c0-0.4-0.3-0.8-0.7-1L48.4,1c-0.4-0.1-0.9,0-1.1,0.4l-1.9,2.8   c-1.3,0-2.6,0.1-4,0.3l-2.3-2.5c-0.3-0.3-0.8-0.4-1.2-0.2l-4.8,2.5c-0.4,0.2-0.6,0.6-0.5,1.1l0.7,3.3c-1,0.9-1.8,1.9-2.6,3   l-3.4-0.1c-0.5,0-0.8,0.3-1,0.7l-1.6,5.2c-0.1,0.4,0,0.9,0.4,1.1l2.8,1.9c0,1.3,0.1,2.7,0.3,4l-2.5,2.3c-0.3,0.3-0.4,0.8-0.2,1.2   l0,0.1l-5.5,6.1L20,33.7c-0.1-0.4-0.5-0.7-0.9-0.7h-4.2c-0.4,0-0.8,0.3-0.9,0.7l-0.7,2.4c-0.9,0.3-1.8,0.6-2.7,1.1l-2.2-1.2   c-0.4-0.2-0.9-0.1-1.2,0.2l-3,3C3.9,39.5,3.8,40,4,40.4l1.2,2.2c-0.5,0.8-0.8,1.7-1.1,2.7L1.7,46C1.3,46.1,1,46.5,1,46.9v4.2   c0,0.4,0.3,0.8,0.7,0.9l2.4,0.7c0.3,0.9,0.6,1.8,1.1,2.7L4,57.7c-0.2,0.4-0.1,0.9,0.2,1.2l3,3C7.5,62.1,8,62.2,8.3,62l2.2-1.2   c0.8,0.5,1.7,0.8,2.7,1.1l0.7,2.4c0.1,0.4,0.5,0.7,0.9,0.7h4.2c0.4,0,0.8-0.3,0.9-0.7l0.7-2.4c0.9-0.3,1.8-0.6,2.7-1.1l2.2,1.2   c0.4,0.2,0.9,0.1,1.2-0.2l3-3c0.3-0.3,0.4-0.8,0.2-1.2l-1.2-2.2c0.5-0.9,0.8-1.8,1.1-2.7l2.4-0.7c0.4-0.1,0.7-0.5,0.7-0.9v-4.2   c0-0.4-0.3-0.8-0.7-0.9l-0.5-0.2l6.2-5.6l3.4,1.1c0.4,0.1,0.9,0,1.1-0.4l1.9-2.8c1.3,0,2.7-0.1,4-0.3l2.3,2.5   c0.3,0.3,0.8,0.4,1.2,0.2l4.8-2.5c0.4-0.2,0.6-0.6,0.5-1.1l-0.7-3.3c1-0.9,1.8-1.9,2.5-3l3.4,0.1c0.4,0,0.8-0.3,1-0.7l1.6-5.2   C65.1,24.2,64.9,23.8,64.6,23.5z M39.6,15.8c1.4-1.4,3.2-2.2,5.3-2.2c4.1,0,7.5,3.4,7.5,7.5c0,4.1-3.4,7.5-7.5,7.5   c-4.1,0-7.5-3.4-7.5-7.5C37.3,17.7,39.5,15.9,39.6,15.8z M44.9,30.6c0.3,0,0.5,0,0.8,0L37.5,38l0.1-3.2c0-0.3-0.2-0.7-0.5-0.9   c-1.3-0.8-2.5-1.8-3.4-2.9c-0.2-0.3-0.6-0.4-0.9-0.3l-3.2,0.6L28,28.4l7.4-8.1c0,0.3,0,0.5,0,0.8C35.4,26.3,39.6,30.6,44.9,30.6z    M28.2,32.9c0.2,0.4,0.6,0.6,1.1,0.5l3.3-0.7c0.9,1,1.9,1.8,3,2.6l-0.1,3.4c0,0.3,0.1,0.6,0.4,0.8L29.7,45c-0.3-0.8-0.6-1.6-1-2.4   l1.2-2.2c0.2-0.4,0.1-0.9-0.2-1.2l-3-3c-0.3-0.3-0.8-0.4-1.2-0.2l-2.2,1.2c-0.8-0.4-1.6-0.8-2.5-1l5.7-6.3L28.2,32.9z M17,43.3   c3.1,0,5.6,2.5,5.6,5.6s-2.5,5.6-5.6,5.6c-3.1,0-5.6-2.5-5.6-5.6S13.9,43.3,17,43.3z M17,41.4c-0.3,0-0.5,0-0.8,0l3.3-3.6   c0.1,0,0.1,0.1,0.2,0.1c1.1,0.3,2.2,0.7,3.2,1.3c0.3,0.2,0.7,0.2,1,0l2.1-1.1l2,2l-1.1,2.1c-0.2,0.3-0.2,0.7,0,1   c0.6,1,1,2.1,1.3,3.2c0,0.1,0,0.1,0.1,0.2l-3.6,3.3c0-0.2,0-0.5,0-0.8C24.6,44.8,21.2,41.4,17,41.4z M31,47.6v2.8l-2.3,0.7   c-0.3,0.1-0.6,0.4-0.7,0.7c-0.3,1.1-0.7,2.2-1.3,3.2c-0.2,0.3-0.2,0.7,0,1l1.1,2.1l-2,2l-2.1-1.1c-0.3-0.2-0.7-0.2-1,0   c-1,0.6-2.1,1-3.2,1.3c-0.3,0.1-0.6,0.3-0.7,0.7l-0.6,2.3h-2.8l-0.7-2.3c-0.1-0.3-0.4-0.6-0.7-0.7c-1.1-0.3-2.2-0.7-3.2-1.3   c-0.3-0.2-0.7-0.2-1,0L8,59.9l-2-2l1.1-2.1c0.2-0.3,0.2-0.7,0-1c-0.6-1-1-2.1-1.3-3.2c-0.1-0.3-0.3-0.6-0.7-0.7l-2.3-0.7v-2.8   L5.2,47c0.3-0.1,0.6-0.4,0.7-0.7c0.3-1.1,0.7-2.2,1.3-3.2c0.2-0.3,0.2-0.7,0-1l-1.1-2.1l2-2l2.1,1.1c0.3,0.2,0.7,0.2,1,0   c1-0.6,2.1-1,3.2-1.3c0.3-0.1,0.6-0.3,0.7-0.7l0.7-2.3h2.8l0.3,0.9l-7,7.7l0,0C10.2,45,9.4,46.9,9.4,49c0,4.2,3.4,7.6,7.6,7.6   c2.1,0,4-0.8,5.3-2.2l0,0l7.7-7L31,47.6z M61.7,28.5l-3.2-0.1c-0.4,0-0.7,0.2-0.9,0.5c-0.8,1.3-1.8,2.4-2.9,3.4   c-0.3,0.2-0.4,0.6-0.3,0.9l0.6,3.2l-3.5,1.8l-2.2-2.3c-0.2-0.3-0.6-0.4-0.9-0.3c-1.5,0.4-3,0.5-4.5,0.4c-0.4,0-0.7,0.1-0.9,0.4   l-1.8,2.7l-1.6-0.5l11.9-10.8l0,0c1.7-1.7,2.8-4.1,2.8-6.7c0,0,0,0,0,0c0-5.2-4.2-9.5-9.5-9.5c-2.6,0-5,1.1-6.7,2.8l0,0l-8.1,8.9   c-0.2-1-0.2-2.1-0.1-3.1c0-0.3-0.1-0.7-0.4-0.9l-2.7-1.8l1.2-3.8l3.2,0.1c0.3,0,0.7-0.2,0.9-0.5c0.8-1.3,1.8-2.5,2.9-3.4   c0.3-0.2,0.4-0.6,0.3-0.9l-0.6-3.2L38.2,4l2.2,2.3c0.2,0.3,0.6,0.4,0.9,0.3c1.5-0.4,3-0.5,4.5-0.4c0.3,0,0.7-0.1,0.9-0.4l1.8-2.7   l3.8,1.2l-0.1,3.2c0,0.3,0.2,0.7,0.5,0.9c1.3,0.8,2.4,1.8,3.4,2.9c0.2,0.3,0.6,0.4,0.9,0.3l3.2-0.6l1.8,3.5l-2.3,2.2   c-0.3,0.2-0.4,0.6-0.3,0.9c0.4,1.5,0.5,3,0.4,4.5c0,0.3,0.1,0.7,0.4,0.9l2.7,1.8L61.7,28.5z"/><path d="M44.9,24.7c2,0,3.6-1.6,3.6-3.6c0-2-1.6-3.6-3.6-3.6c-2,0-3.6,1.6-3.6,3.6C41.2,23.1,42.9,24.7,44.9,24.7z    M44.9,19.4c0.9,0,1.7,0.8,1.7,1.7c0,0.9-0.8,1.7-1.7,1.7c-0.9,0-1.7-0.8-1.7-1.7S43.9,19.4,44.9,19.4z"/><path d="M17,52.2c1.8,0,3.2-1.4,3.2-3.2s-1.4-3.2-3.2-3.2c-1.8,0-3.2,1.4-3.2,3.2S15.2,52.2,17,52.2z M17,47.7   c0.7,0,1.3,0.6,1.3,1.3c0,0.7-0.6,1.3-1.3,1.3c-0.7,0-1.3-0.6-1.3-1.3C15.7,48.3,16.3,47.7,17,47.7z"/></g></svg>
