<svg xmlns="http://www.w3.org/2000/svg" xmlns:xlink="http://www.w3.org/1999/xlink" version="1.1" x="0px" y="0px" viewBox="0 0 64 80" style="enable-background:new 0 0 64 64;" xml:space="preserve"><g><path d="M43.382,39H41v2H23v-2h-2.382l-2,4h-3.304c3.582,5.416,9.72,9,16.686,9s13.103-3.584,16.686-9h-3.304L43.382,39z"/><path d="M25,25v14h14V25H25z M29,29h-2v-2h2V29z"/><path d="M17.618,29H23v-2h-3.618l-2-4h-3.218c-0.328,0.647-0.618,1.315-0.875,2h2.329L17.618,29z"/><path d="M23,31h-6.618l-2-4h-1.724C12.244,28.601,12,30.271,12,32c0,0.338,0.034,0.667,0.051,1H23V31z"/><path d="M46.382,35H41v2h3.618l2,4h3.218c0.328-0.647,0.618-1.315,0.875-2h-2.329L46.382,35z"/><path d="M19.382,37H23v-2H12.25c0.322,2.128,0.974,4.146,1.914,6h3.218L19.382,37z"/><path d="M32,12c-6.965,0-13.103,3.584-16.686,9h3.304l2,4H23v-2h18v2h2.382l2-4h3.304C45.103,15.584,38.965,12,32,12z"/><path d="M41,33h6.618l2,4h1.724C51.756,35.399,52,33.729,52,32c0-0.338-0.034-0.667-0.051-1H41V33z"/><path d="M56.69,28l-0.157-0.809c-0.641-3.289-1.914-6.364-3.784-9.14l-0.46-0.683l3.045-3.046l-5.657-5.657l-3.046,3.046   l-0.683-0.46c-2.776-1.871-5.852-3.144-9.14-3.784L36,7.31V3h-8v4.31l-0.809,0.157c-3.289,0.641-6.364,1.914-9.14,3.784   l-0.683,0.46l-3.046-3.046l-5.657,5.657l3.045,3.046l-0.46,0.683c-1.871,2.776-3.144,5.852-3.784,9.14L7.31,28H3v8h4.31   l0.157,0.809c0.641,3.289,1.914,6.364,3.784,9.141l0.46,0.684l-3.045,3.045l5.657,5.657l3.046-3.047l0.683,0.461   c2.777,1.87,5.853,3.144,9.14,3.784L28,56.69V61h8v-4.31l0.809-0.157c3.288-0.641,6.363-1.914,9.14-3.784l0.683-0.461l3.046,3.047   l5.657-5.657l-3.045-3.045l0.46-0.684c1.87-2.776,3.144-5.852,3.784-9.141L56.69,36H61v-8H56.69z M32,54c-12.131,0-22-9.869-22-22   s9.869-22,22-22s22,9.869,22,22S44.131,54,32,54z"/><path d="M44.618,27H41v2h10.75c-0.322-2.128-0.974-4.146-1.914-6h-3.218L44.618,27z"/></g></svg>
