<svg xmlns="http://www.w3.org/2000/svg" xmlns:xlink="http://www.w3.org/1999/xlink" version="1.1" x="0px" y="0px" viewBox="0 0 32 40" enable-background="new 0 0 32 32" xml:space="preserve"><g><g><g><path d="M16,31c-0.552,0-1-0.447-1-1s0.448-1,1-1c3.86,0,7-3.141,7-7c-0.026-0.613-1.207-11.637-1.994-18.893     c-0.06-0.549,0.337-1.042,0.886-1.102c0.545-0.058,1.042,0.337,1.102,0.887C23.465,7.229,25,21.422,25,22     C25,26.963,20.962,31,16,31z"/></g><g><path d="M16,31c-4.962,0-9-4.037-9-9c0-0.724,1.54-11.013,2.011-14.148c0.083-0.547,0.588-0.913,1.138-0.841     c0.546,0.083,0.922,0.592,0.84,1.138C10.235,13.159,9.029,21.354,9,22.017C9,25.859,12.14,29,16,29c0.552,0,1,0.447,1,1     S16.552,31,16,31z"/></g><g><path d="M12,19c-0.008,0-0.016,0-0.024,0c-0.467-0.012-0.865-0.345-0.957-0.804l-2-10C8.911,7.654,9.262,7.128,9.804,7.02     c0.545-0.112,1.069,0.242,1.177,0.784l1.128,5.64L15.03,1.758c0.135-0.537,0.678-0.859,1.213-0.728     c0.536,0.134,0.861,0.677,0.728,1.212l-4,16C12.859,18.688,12.458,19,12,19z"/></g><g><path d="M19,14c-0.004,0-0.008,0-0.013,0c-0.446-0.006-0.834-0.307-0.952-0.737l-3-11c-0.145-0.532,0.169-1.082,0.702-1.228     c0.533-0.149,1.082,0.168,1.228,0.702l2.081,7.63l1.996-6.654c0.16-0.529,0.719-0.827,1.245-0.671     c0.529,0.159,0.83,0.717,0.671,1.245l-3,10C19.831,13.711,19.441,14,19,14z"/></g></g></g></svg>
