<svg xmlns="http://www.w3.org/2000/svg" xmlns:xlink="http://www.w3.org/1999/xlink" version="1.1" x="0px" y="0px" viewBox="0 0 91 113.75" enable-background="new 0 0 91 91" xml:space="preserve"><g><path d="M45.729,90.438c24.754,0,44.895-20.139,44.895-44.891c0-24.754-20.141-44.895-44.895-44.895S0.838,20.793,0.838,45.547   C0.838,70.3,20.975,90.438,45.729,90.438z M40.387,45.545c0-2.947,2.396-5.346,5.342-5.346s5.342,2.398,5.342,5.346   c0,2.946-2.396,5.344-5.342,5.344S40.387,48.491,40.387,45.545z M45.729,5.678c21.982,0,39.869,17.885,39.869,39.869   c0,21.137-16.539,38.475-37.355,39.778V55.593c1.531-0.383,2.934-1.1,4.111-2.08c0.021,0.033,0.045,0.07,0.066,0.105   c0.424,0.645,0.824,1.252,1.072,1.777c0.307,0.654,0.883,1.145,1.578,1.344c0.229,0.066,0.461,0.098,0.693,0.098   c0.477,0,0.949-0.135,1.357-0.398c2.131-1.367,3.896-3.316,5.455-5.037c0.18-0.197,0.355-0.389,0.533-0.584l1.375-0.523   l-2.896,8.826c-0.291,0.883-0.07,1.852,0.572,2.521c0.643,0.672,1.602,0.932,2.496,0.68c1.199-0.338,2.504-0.723,3.768-1.129   c-0.633,1.338-1.346,2.783-2.021,4.104c-0.328,0.643-0.365,1.396-0.1,2.068s0.809,1.197,1.49,1.441l5.289,1.895   c0.279,0.1,0.566,0.148,0.848,0.146c1.031,0,1.998-0.639,2.365-1.666c0.467-1.305-0.213-2.744-1.518-3.211l-2.615-0.938   c3.66-7.396,3.393-8.236,3.109-9.119c-0.256-0.801-0.861-1.445-1.67-1.676c-0.807-0.232-1.645-0.07-2.285,0.477   c-0.418,0.281-1.771,0.799-3.439,1.357l2.021-6.16c0.422,0.598,0.797,1.127,0.99,1.396c0.473,0.652,1.23,1.039,2.037,1.039   c0.008,0,0.016,0,0.023,0c0.814-0.008,1.574-0.41,2.039-1.078l2.189-3.148l1.555,1.123c1.121,0.813,2.693,0.563,3.508-0.563   c0.813-1.123,0.561-2.695-0.563-3.508l-3.629-2.625c-0.547-0.395-1.229-0.557-1.895-0.441c-0.664,0.113-1.256,0.488-1.641,1.043   l-1.604,2.307c-0.531-0.756-0.947-1.35-0.947-1.352c-0.66-0.943-1.877-1.316-2.951-0.908l-8.246,3.137   c-0.023,0.008-0.043,0.023-0.066,0.033c-0.08,0.033-0.156,0.074-0.232,0.115c-0.072,0.039-0.146,0.078-0.213,0.123   c-0.063,0.041-0.119,0.09-0.176,0.137c-0.074,0.061-0.146,0.119-0.211,0.186c-0.018,0.018-0.035,0.029-0.053,0.047   c-0.318,0.344-0.639,0.697-0.963,1.055c-0.787,0.869-1.59,1.756-2.418,2.545c-0.361-0.553-0.703-1.1-0.936-1.594   c0.379-1.076,0.598-2.229,0.598-3.434c0-2.6-0.969-4.973-2.553-6.795l2.709-4.877c0.889-0.098,1.91-0.221,2.754-0.326l2.164,3.92   c0.357,0.65,0.986,1.109,1.717,1.252c0.16,0.031,0.322,0.047,0.482,0.047c0.57,0,1.129-0.193,1.578-0.559l4.256-3.438l5.201,2.035   c1.289,0.502,2.748-0.133,3.256-1.424c0.504-1.293-0.133-2.75-1.426-3.256l-6.561-2.568c-0.84-0.33-1.793-0.182-2.494,0.387   l-3.059,2.473l-1.527-2.768l-3.527-6.609l2.838-1.117c1.059-0.416,1.705-1.492,1.576-2.623l-0.738-6.502   c-0.158-1.379-1.404-2.383-2.781-2.211c-1.379,0.156-2.369,1.4-2.213,2.779l0.521,4.586l-3.668,1.443   c-0.668,0.264-1.191,0.797-1.439,1.471c-0.246,0.672-0.195,1.418,0.143,2.051l3.139,5.879c-0.762,0.09-1.477,0.166-1.953,0.205   c-0.836,0.068-1.584,0.551-1.992,1.283L49.4,35.858c-1.143-0.436-2.379-0.684-3.672-0.684c-1.867,0-3.617,0.504-5.133,1.371   c-0.184-0.928-0.25-1.957-0.219-3.189c0.1-0.637-0.053-1.299-0.463-1.846c-0.027-0.039-0.055-0.076-0.086-0.115   c-0.027-0.031-0.045-0.066-0.074-0.098c-0.211-0.26-0.844-1.26-1.547-2.414l4.025-3.082c0.93-0.713,1.244-1.975,0.756-3.041   l-4.309-9.412c-0.576-1.262-2.068-1.816-3.33-1.238c-1.262,0.576-1.816,2.068-1.238,3.33l3.475,7.59l-4.215,3.227   c-1.008,0.773-1.281,2.176-0.637,3.27c0.379,0.645,0.723,1.221,1.043,1.75l-4.008,0.867l0.256-6.682   c0.029-0.734-0.266-1.443-0.807-1.943c-0.541-0.498-1.273-0.742-2.004-0.646L24.57,23.19l-2.428-4.039   c-0.715-1.188-2.258-1.572-3.447-0.857s-1.574,2.258-0.859,3.447l3.266,5.432c0.508,0.848,1.463,1.32,2.453,1.199l1.338-0.16   l-0.232,6.047c-0.1,0.111-0.213,0.234-0.342,0.371l-1.826-1.904c-0.57-0.596-1.395-0.871-2.213-0.74   c-0.813,0.131-1.512,0.652-1.867,1.396c-0.533,1.119-1.172,2.395-1.668,3.338l-2.963-0.521c-1.365-0.236-2.67,0.672-2.91,2.037   c-0.242,1.367,0.672,2.67,2.037,2.912l4.693,0.826c0.146,0.025,0.291,0.039,0.438,0.039c0.795,0,1.553-0.379,2.031-1.037   c0.32-0.441,0.793-1.287,1.268-2.195l0.82,0.854c0.518,0.543,1.252,0.813,2,0.768c1.82-0.137,3.182-1.617,4.279-2.828l7.01-1.518   c0.17,1.646,0.566,3.098,1.189,4.514c-0.813,1.479-1.275,3.174-1.275,4.977c0,1.467,0.311,2.86,0.861,4.127   c-0.232,1.203-0.689,3.338-1.207,5.086c-0.051-0.014-0.102-0.025-0.152-0.039c-0.928-0.244-1.887-0.496-2.883-0.658   c-0.998-0.166-1.992,0.283-2.531,1.137c-0.617,0.977-1.381,2.254-2.104,3.484l-3.025-6.359c-0.412-0.867-1.279-1.422-2.238-1.434   c-0.01,0-0.02,0-0.029,0c-0.947,0-1.816,0.533-2.244,1.379c-0.684,1.355-2.186,3.406-3.346,4.898   c-1.289-0.639-2.893-1.48-3.568-1.934c-0.238-0.342-0.564-0.629-0.967-0.824c-1.248-0.604-2.752-0.084-3.357,1.166   c-0.303,0.625-0.33,1.424-0.08,2.072c0.822,2.137,7.477,4.846,7.758,4.961c1.016,0.41,2.176,0.117,2.875-0.725   c0.088-0.104,1.303-1.57,2.594-3.338l3.146,6.617c0.402,0.846,1.244,1.398,2.18,1.432c0.031,0,0.061,0.002,0.09,0.002   c0.902,0,1.74-0.486,2.188-1.277c0.021-0.039,1.904-3.367,3.461-5.949c0.264,0.068,0.533,0.139,0.807,0.209   c0.838,0.221,1.705,0.449,2.592,0.607c1.125,0.199,2.248-0.387,2.727-1.428c0.541-1.182,1.029-2.834,1.42-4.381   c0.885,0.545,1.855,0.957,2.891,1.217v29.732C22.402,84.024,5.863,66.685,5.863,45.547C5.863,23.563,23.746,5.678,45.729,5.678z"/></g></svg>
