<svg xmlns="http://www.w3.org/2000/svg" xmlns:xlink="http://www.w3.org/1999/xlink" version="1.1" x="0px" y="0px" viewBox="0 0 100 125" enable-background="new 0 0 100 100" xml:space="preserve"><path d="M58.8,20V5h-2.5v14.4c-2-0.4-4.1-0.6-6.3-0.6c-17.2,0-31.3,14-31.3,31.3c0,3,0.4,6,1.3,8.8H5v2.5h15.9  c4.5,11.7,15.9,20,29.1,20c2.1,0,4.2-0.2,6.3-0.6V95h2.5V80c13-3.8,22.5-15.8,22.5-30S71.7,23.8,58.8,20z M56.3,78.1  c-2,0.4-4.1,0.7-6.3,0.7c-11.9,0-22.1-7.2-26.5-17.5h14V38.8H35v20H22.6c-0.9-2.8-1.4-5.7-1.4-8.8c0-15.9,12.9-28.8,28.8-28.8  c2.1,0,4.2,0.2,6.3,0.7v11.8H43.8V30h-2.5v40h2.5v-3.8h12.5V78.1z M56.3,63.8H43.8V51.3h4.9v6.3l6.3-6.3h1.2V63.8z M58.8,77.4V65  v-1.3v-15H55l-6.3-6.3v6.3h-4.9V36.3h15V22.6c11.6,3.7,20,14.6,20,27.4S70.3,73.7,58.8,77.4z"/></svg>
